<svg width="185" height="45" viewBox="0 0 185 45" fill="none" xmlns="http://www.w3.org/2000/svg">
<path d="M7.5 7.5C6.50544 7.5 5.55161 7.89509 4.84835 8.59835C4.14509 9.30161 3.75 10.2554 3.75 11.25V31.875C3.75 32.8696 4.14509 33.8234 4.84835 34.5266C5.55161 35.2299 6.50544 35.625 7.5 35.625V37.5H11.25V35.625H31.875V37.5H35.625V35.625C36.6196 35.625 37.5734 35.2299 38.2766 34.5266C38.9799 33.8234 39.375 32.8696 39.375 31.875V30H41.25V26.25H39.375V16.875H41.25V13.125H39.375V11.25C39.375 10.2554 38.9799 9.30161 38.2766 8.59835C37.5734 7.89509 36.6196 7.5 35.625 7.5H7.5ZM7.5 11.25H35.625V31.875H7.5V11.25ZM25.3125 14.0625C23.3234 14.0625 21.4157 14.8527 20.0092 16.2592C18.6027 17.6657 17.8125 19.5734 17.8125 21.5625C17.8125 23.5516 18.6027 25.4593 20.0092 26.8658C21.4157 28.2723 23.3234 29.0625 25.3125 29.0625C27.3016 29.0625 29.2093 28.2723 30.6158 26.8658C32.0223 25.4593 32.8125 23.5516 32.8125 21.5625C32.8125 19.5734 32.0223 17.6657 30.6158 16.2592C29.2093 14.8527 27.3016 14.0625 25.3125 14.0625ZM9.375 16.875V26.25H13.125V16.875H9.375ZM25.3125 17.8125C26.3071 17.8125 27.2609 18.2076 27.9641 18.9109C28.6674 19.6141 29.0625 20.5679 29.0625 21.5625C29.0625 22.5571 28.6674 23.5109 27.9641 24.2141C27.2609 24.9174 26.3071 25.3125 25.3125 25.3125C24.3179 25.3125 23.3641 24.9174 22.6609 24.2141C21.9576 23.5109 21.5625 22.5571 21.5625 21.5625C21.5625 20.5679 21.9576 19.6141 22.6609 18.9109C23.3641 18.2076 24.3179 17.8125 25.3125 17.8125Z" fill="white"/>
<path d="M47.0227 34V10.7273H51.9432V20.9886H52.25L60.625 10.7273H66.5227L57.8864 21.1477L66.625 34H60.7386L54.3636 24.4318L51.9432 27.3864V34H47.0227ZM75.6676 34.3409C73.8722 34.3409 72.3267 33.9773 71.0312 33.25C69.7434 32.5152 68.7509 31.4773 68.054 30.1364C67.357 28.7879 67.0085 27.1932 67.0085 25.3523C67.0085 23.5568 67.357 21.9811 68.054 20.625C68.7509 19.2689 69.732 18.2121 70.9972 17.4545C72.2699 16.697 73.7623 16.3182 75.4744 16.3182C76.6259 16.3182 77.6979 16.5038 78.6903 16.875C79.6903 17.2386 80.5616 17.7879 81.304 18.5227C82.054 19.2576 82.6373 20.1818 83.054 21.2955C83.4706 22.4015 83.679 23.697 83.679 25.1818V26.5114H68.9403V23.5114H79.1222C79.1222 22.8144 78.9706 22.197 78.6676 21.6591C78.3646 21.1212 77.9441 20.7008 77.4062 20.3977C76.8759 20.0871 76.2585 19.9318 75.554 19.9318C74.8191 19.9318 74.1676 20.1023 73.5994 20.4432C73.0388 20.7765 72.5994 21.2273 72.2812 21.7955C71.9631 22.3561 71.8002 22.9811 71.7926 23.6705V26.5227C71.7926 27.3864 71.9517 28.1326 72.2699 28.7614C72.5956 29.3902 73.054 29.875 73.6449 30.2159C74.2358 30.5568 74.9366 30.7273 75.7472 30.7273C76.285 30.7273 76.7775 30.6515 77.2244 30.5C77.6714 30.3485 78.054 30.1212 78.3722 29.8182C78.6903 29.5152 78.9328 29.1439 79.0994 28.7045L83.5767 29C83.3494 30.0758 82.8835 31.0152 82.179 31.8182C81.482 32.6136 80.5805 33.2348 79.4744 33.6818C78.3759 34.1212 77.107 34.3409 75.6676 34.3409ZM89.358 40.5455C88.7443 40.5455 88.1686 40.4962 87.6307 40.3977C87.1004 40.3068 86.661 40.1894 86.3125 40.0455L87.4034 36.4318C87.9716 36.6061 88.483 36.7008 88.9375 36.7159C89.3996 36.7311 89.7973 36.625 90.1307 36.3977C90.4716 36.1705 90.7481 35.7841 90.9602 35.2386L91.2443 34.5L84.983 16.5455H90.0739L93.6875 29.3636H93.8693L97.517 16.5455H102.642L95.858 35.8864C95.5322 36.8258 95.089 37.6439 94.5284 38.3409C93.9754 39.0455 93.2746 39.5871 92.4261 39.9659C91.5777 40.3523 90.5549 40.5455 89.358 40.5455ZM109.415 10.7273L115.04 28.4091H115.256L120.892 10.7273H126.347L118.324 34H111.983L103.949 10.7273H109.415ZM132.097 34.3295C130.983 34.3295 129.991 34.1364 129.119 33.75C128.248 33.3561 127.559 32.7765 127.051 32.0114C126.551 31.2386 126.301 30.2765 126.301 29.125C126.301 28.1553 126.479 27.3409 126.835 26.6818C127.191 26.0227 127.676 25.4924 128.29 25.0909C128.903 24.6894 129.6 24.3864 130.381 24.1818C131.169 23.9773 131.994 23.8333 132.858 23.75C133.873 23.6439 134.691 23.5455 135.312 23.4545C135.934 23.3561 136.384 23.2121 136.665 23.0227C136.945 22.8333 137.085 22.553 137.085 22.1818V22.1136C137.085 21.3939 136.858 20.8371 136.403 20.4432C135.956 20.0492 135.32 19.8523 134.494 19.8523C133.623 19.8523 132.93 20.0455 132.415 20.4318C131.9 20.8106 131.559 21.2879 131.392 21.8636L126.915 21.5C127.142 20.4394 127.589 19.5227 128.256 18.75C128.922 17.9697 129.782 17.3712 130.835 16.9545C131.896 16.5303 133.123 16.3182 134.517 16.3182C135.487 16.3182 136.415 16.4318 137.301 16.6591C138.195 16.8864 138.987 17.2386 139.676 17.7159C140.373 18.1932 140.922 18.8068 141.324 19.5568C141.725 20.2992 141.926 21.1894 141.926 22.2273V34H137.335V31.5795H137.199C136.919 32.125 136.544 32.6061 136.074 33.0227C135.604 33.4318 135.04 33.7538 134.381 33.9886C133.722 34.2159 132.96 34.3295 132.097 34.3295ZM133.483 30.9886C134.195 30.9886 134.824 30.8485 135.369 30.5682C135.915 30.2803 136.343 29.8939 136.653 29.4091C136.964 28.9242 137.119 28.375 137.119 27.7614V25.9091C136.968 26.0076 136.759 26.0985 136.494 26.1818C136.237 26.2576 135.945 26.3295 135.619 26.3977C135.294 26.4583 134.968 26.5152 134.642 26.5682C134.316 26.6136 134.021 26.6553 133.756 26.6932C133.188 26.7765 132.691 26.9091 132.267 27.0909C131.843 27.2727 131.513 27.5189 131.278 27.8295C131.044 28.1326 130.926 28.5114 130.926 28.9659C130.926 29.625 131.165 30.1288 131.642 30.4773C132.127 30.8182 132.741 30.9886 133.483 30.9886ZM156.875 26.5682V16.5455H161.716V34H157.068V30.8295H156.886C156.492 31.8523 155.837 32.6742 154.92 33.2955C154.011 33.9167 152.902 34.2273 151.591 34.2273C150.424 34.2273 149.398 33.9621 148.511 33.4318C147.625 32.9015 146.932 32.1477 146.432 31.1705C145.939 30.1932 145.689 29.0227 145.682 27.6591V16.5455H150.523V26.7955C150.53 27.8258 150.807 28.6402 151.352 29.2386C151.898 29.8371 152.629 30.1364 153.545 30.1364C154.129 30.1364 154.674 30.0038 155.182 29.7386C155.689 29.4659 156.098 29.0644 156.409 28.5341C156.727 28.0038 156.883 27.3485 156.875 26.5682ZM170.429 10.7273V34H165.588V10.7273H170.429ZM183.591 16.5455V20.1818H173.08V16.5455H183.591ZM175.466 12.3636H180.307V28.6364C180.307 29.0833 180.375 29.4318 180.511 29.6818C180.648 29.9242 180.837 30.0947 181.08 30.1932C181.33 30.2917 181.617 30.3409 181.943 30.3409C182.17 30.3409 182.398 30.322 182.625 30.2841C182.852 30.2386 183.027 30.2045 183.148 30.1818L183.909 33.7841C183.667 33.8598 183.326 33.947 182.886 34.0455C182.447 34.1515 181.913 34.2159 181.284 34.2386C180.117 34.2841 179.095 34.1288 178.216 33.7727C177.345 33.4167 176.667 32.8636 176.182 32.1136C175.697 31.3636 175.458 30.4167 175.466 29.2727V12.3636Z" fill="white"/>
</svg>
